<svg xmlns="http://www.w3.org/2000/svg"  viewBox="0 0 50 50" width="150px" height="150px"><path d="M 37.496094 3 C 35.016094 3 33 5.016 33 7.5 C 33 9.984 35.016094 12 37.496094 12 C 39.988094 12 42 9.984 42 7.5 C 42 5.016 39.988094 3 37.496094 3 z M 23 10 C 22.603085 10 22.234806 10.119153 21.923828 10.318359 L 21.886719 10.324219 L 14.957031 15.298828 L 14.957031 15.300781 C 14.384598 15.652542 14 16.278514 14 17 C 14 18.105 14.895 19 16 19 C 16.491964 19 16.936895 18.815843 17.285156 18.521484 L 17.289062 18.527344 L 23.28125 14.21875 L 27.691406 15.617188 L 22.757812 23.660156 L 22.759766 23.669922 C 22.286471 24.327038 22 25.127378 22 26 C 22 27.54588 22.884145 28.869093 24.166016 29.535156 L 24.167969 29.546875 L 31.753906 34.226562 L 30.058594 42.970703 C 30.021644 43.14147 30 43.318301 30 43.5 C 30 44.879 31.121 46 32.5 46 C 33.721309 46 34.73606 45.119994 34.953125 43.960938 L 34.955078 43.960938 L 36.982422 33.289062 L 36.972656 33.263672 C 36.984296 33.176333 37 33.090535 37 33 C 37 32.416464 36.745963 31.896778 36.347656 31.53125 L 36.339844 31.507812 L 30.9375 26.71875 L 35.609375 17.484375 L 35.603516 17.464844 C 35.848856 17.030044 36 16.534514 36 16 C 36 14.768303 35.255749 13.711866 34.193359 13.25 L 34.191406 13.242188 L 31.683594 11.847656 L 23.519531 10.066406 L 23.496094 10.070312 C 23.336399 10.029277 23.172543 10 23 10 z M 9.2128906 16.382812 C 8.7011406 16.363938 8.1808438 16.541016 7.7773438 16.916016 L 4.5996094 19.865234 C 3.7916094 20.614234 3.7431875 21.881406 4.4921875 22.691406 L 8.9355469 27.480469 L 8.9375 27.480469 C 9.3005 27.872469 9.794125 28.096187 10.328125 28.117188 C 10.353125 28.118188 10.379297 28.119141 10.404297 28.119141 C 10.910297 28.119141 11.390719 27.930937 11.761719 27.585938 L 14.941406 24.636719 C 15.333406 24.273719 15.559078 23.778141 15.580078 23.244141 C 15.600078 22.709141 15.409875 22.198594 15.046875 21.808594 L 10.603516 17.021484 C 10.228016 16.615984 9.7246406 16.401687 9.2128906 16.382812 z M 37.214844 18.742188 L 34.972656 23.171875 L 36.179688 25.839844 L 36.191406 25.847656 C 36.511406 26.526656 37.199 27 38 27 L 45 27 C 46.105 27 47 26.105 47 25 C 47 23.895 46.105 23 45 23 L 39 23 L 37.214844 18.742188 z M 20.519531 28.414062 L 18.242188 32 L 10.5 32 C 9.117 32 8 33.117 8 34.5 C 8 35.883 9.117 37 10.5 37 L 18.933594 37 C 20.230594 37 21.445312 36.3715 22.195312 35.3125 L 24.480469 32.089844 C 23.651469 31.578844 23.054875 31.207125 23.046875 31.203125 C 21.901875 30.555125 21.030531 29.570063 20.519531 28.414062 z"/></svg>